<svg height="56" viewBox="0 0 56 56" width="56" xmlns="http://www.w3.org/2000/svg"><path d="m36.1719084 17.5813173v20.6369367c0 1.8432701-1.4344673 3.3391797-3.2525335 3.436859l-.1894011.0050739-2.2833782-.0004769.0001621 7.0407677c0 1.7165931-1.3188101 3.0945745-3.0100068 3.1875666l-.1825815.0050032c-1.7165886 0-3.0945929-1.3187885-3.1875866-3.0099879l-.0050033-.1825819-.0009839-7.0407677h-4.253l.000458 7.0407677c0 1.7165931-1.3188114 3.0945745-3.0100083 3.1875666l-.1825815.0050032c-1.7165886 0-3.094592-1.3187885-3.1875856-3.0099879l-.0050033-.1825819-.0002793-7.0407677-2.2829353.0004769c-1.84327036 0-3.33918079-1.4344673-3.43686007-3.252532l-.00507392-.1894009v-20.6369367zm-32.8547235-.5475808c1.71658818 0 3.09459225 1.3188116 3.18758589 3.0100084l.00500336.1825815v13.2983808c0 1.7778953-1.41469435 3.1925899-3.19258925 3.1925899-1.71658833 0-3.09459232-1.3188116-3.18758595-3.0100084l-.00500336-.1825815v-13.2983808c0-1.7778953 1.41469425-3.1925899 3.19258931-3.1925899zm37.2354688 0c1.7165886 0 3.0945914 1.3188116 3.187585 3.0100084l.0050033.1825815v13.2983808c0 1.7778953-1.414693 3.1925899-3.1925883 3.1925899-1.7165888 0-3.0945929-1.3188116-3.1875866-3.0100084l-.0050033-.1825815v-13.2983808c0-1.7778953 1.4146944-3.1925899 3.1925899-3.1925899zm-9.7783235-16.75502651c.0754709.00076303.1457954.02028679.215121.05871223.2023602.11217139.2839967.33133446.2107873.53894755l-.0347786.07708197-2.2489924 4.06285121c4.2308014 2.20140261 7.1190023 6.34090255 7.2507463 11.11410715l.0046946.3264124h-28.47418209c.00572742-4.8013355 2.80003089-8.99861179 6.96907299-11.28743598l.2863665-.15308357-2.2489901-4.06285121c-.1265115-.22823254-.0516478-.48983671.176008-.61602952.0693252-.03842544.1396501-.05789672.2151209-.05871223.1346343-.00125149.2634234.05458919.3524985.16323283l.0484084.07148805 2.278326 4.10685377c1.8637594-.82670336 3.9542572-1.2907245 6.16028-1.2907245 2.048448 0 3.9972854.40009986 5.757471 1.11916197l.4028073.17156253 2.2783259-4.10685377c.0862022-.15551087.239345-.23623624.4009085-.23472088zm-15.4105171 8.59021182c-.6500124 0-1.1880542.53804101-1.1880542 1.18805499 0 .6500124.5380418 1.1880534 1.1880542 1.1880534s1.1880534-.538041 1.1880534-1.1880534c0-.65001398-.538041-1.18805499-1.1880534-1.18805499zm13.1419299 0c-.6500125 0-1.188055.53804101-1.188055 1.18805499 0 .6500124.5380425 1.1880534 1.188055 1.1880534.6500109 0 1.1880533-.538041 1.1880533-1.1880534 0-.65001398-.5380424-1.18805499-1.1880533-1.18805499z" transform="translate(6 2)"/></svg>